HIERARCHY
ROOT Hips
{
  OFFSET 0 89.5177 0.535
  CHANNELS 6 Xposition Yposition Zposition Zrotation Xrotation Yrotation
  JOINT Spine
  {
    OFFSET 12.0259 -0.162855 1.69034e-005
    CHANNELS 3 Zrotation Xrotation Yrotation
    JOINT Spine1
    {
      OFFSET 15.3169 -0.0121922 0
      CHANNELS 3 Zrotation Xrotation Yrotation
      JOINT Spine2
      {
        OFFSET 15.3176 -0.0121908 0
        CHANNELS 3 Zrotation Xrotation Yrotation
        JOINT Neck
        {
          OFFSET 19.9142 1.56338 0
          CHANNELS 3 Zrotation Xrotation Yrotation
          JOINT Head
          {
            OFFSET 6.92651 0 0
            CHANNELS 3 Zrotation Xrotation Yrotation
            End Site
            {
              OFFSET 20.7666 0 0
            }
          }
          JOINT LeftShoulder
          {
            OFFSET -6.20654 0.708824 7.28219
            CHANNELS 3 Zrotation Xrotation Yrotation
            JOINT LeftArm
            {
              OFFSET 14.108 0 -1.52588e-005
              CHANNELS 3 Zrotation Xrotation Yrotation
              JOINT LeftForeArm
              {
                OFFSET 28.5802 0 0
                CHANNELS 3 Zrotation Xrotation Yrotation
                JOINT LeftHand
                {
                  OFFSET 27.092 0 0
                  CHANNELS 3 Zrotation Xrotation Yrotation
                  End Site
                  {
                    OFFSET 9.55928 -0.186424 0.145352
                  }
                }
              }
            }
          }
          JOINT RightShoulder
          {
            OFFSET -6.20654 0.708866 -7.28218
            CHANNELS 3 Zrotation Xrotation Yrotation
            JOINT RightArm
            {
              OFFSET 14.108 0 1.52588e-005
              CHANNELS 3 Zrotation Xrotation Yrotation
              JOINT RightForeArm
              {
                OFFSET 28.5802 0 0
                CHANNELS 3 Zrotation Xrotation Yrotation
                JOINT RightHand
                {
                  OFFSET 27.092 0 0
                  CHANNELS 3 Zrotation Xrotation Yrotation
                  End Site
                  {
                    OFFSET 9.55929 -0.186417 -0.145354
                  }
                }
              }
            }
          }
        }
      }
    }
  }
  JOINT LeftUpLeg
  {
    OFFSET 0.005 -0.535 8.837
    CHANNELS 3 Zrotation Xrotation Yrotation
    JOINT LeftLeg
    {
      OFFSET 39.9035 0 0
      CHANNELS 3 Zrotation Xrotation Yrotation
      JOINT LeftFoot
      {
        OFFSET 39.6689 0 0
        CHANNELS 3 Zrotation Xrotation Yrotation
        JOINT LeftToe
        {
          OFFSET 10.1624 13.6296 0
          CHANNELS 3 Zrotation Xrotation Yrotation
          End Site
          {
            OFFSET 8.38147 0 0
          }
        }
      }
    }
  }
  JOINT RightUpLeg
  {
    OFFSET 0.005 -0.535 -8.837
    CHANNELS 3 Zrotation Xrotation Yrotation
    JOINT RightLeg
    {
      OFFSET 39.9035 0 0
      CHANNELS 3 Zrotation Xrotation Yrotation
      JOINT RightFoot
      {
        OFFSET 39.6689 0 0
        CHANNELS 3 Zrotation Xrotation Yrotation
        JOINT RightToe
        {
          OFFSET 10.1624 13.6296 0
          CHANNELS 3 Zrotation Xrotation Yrotation
          End Site
          {
            OFFSET 8.38147 0 0
          }
        }
      }
    }
  }
}
MOTION
Frames:	11
Frame Time:	0.0333333
194.33 89.6992 -32.0507 -163.929 -83.733 107.671 -0.689655 -1.55625 -0.787335 -1.40141 -3.10229 -1.59406 -1.40141 -3.10229 -1.59407 -8.30788e-012 -9.0191e-006 -5.27751e-005 8.61695 -2.37972 0.436127 -178.33 -27.3271 -86.3648 -21.3404 -47.02 10.3157 -7.82239 6.36111e-015 1.59028e-015 -27.3017 -53.02 -30.5356 -179.399 19.5131 88.2013 -21.5663 43.921 -7.20868 -6.18064 1.27222e-014 -1.98785e-016 -65.6103 68.0167 68.8042 -4.35388 6.28041 -177.115 -4.54977 0 9.93923e-016 7.87766 6.91115 -10.3807 90 -6.33626e-016 1.19271e-015 -11.746 -2.42148 175.604 -16.0725 0 -0 11.6433 -10.9381 11.1521 90 -1.0871e-015 -0 
194.338 89.6968 -31.9891 -163.919 -83.721 107.695 -0.677106 -1.55565 -0.784477 -1.37621 -3.10131 -1.58799 -1.37621 -3.10131 -1.588 -8.30708e-012 -9.0191e-006 -5.27751e-005 8.67824 -2.41023 0.444606 -178.321 -27.2657 -86.3386 -21.2521 -47.0172 10.4574 -7.86673 0 -6.36111e-015 -27.5191 -53.0268 -30.7631 -179.392 19.4599 88.1768 -21.4169 44.0392 -7.37116 -6.15938 -6.36111e-015 -9.93923e-016 -65.5474 68.031 68.7359 -4.42401 6.30234 -177.117 -4.58676 0 -9.93923e-017 7.87692 6.9274 -10.4051 90 5.71506e-016 -7.95139e-016 -11.8393 -2.42651 175.598 -16.1489 1.59028e-015 7.95139e-016 11.6489 -10.9526 11.1283 90 -2.82647e-016 -0 
194.342 89.6954 -31.9218 -164.112 -83.6746 107.518 -0.672234 -1.56044 -0.782083 -1.36649 -3.11334 -1.58245 -1.36649 -3.11334 -1.58246 -8.30708e-012 -9.0191e-006 -5.27751e-005 8.69985 -2.43821 0.48114 -178.3 -27.2439 -86.2897 -21.2297 -46.9848 10.5444 -7.88378 0 6.36111e-015 -27.6021 -53.0001 -30.8457 -179.383 19.4618 88.1477 -21.4689 44.0429 -7.43787 -6.03972 -3.18055e-015 -3.97569e-016 -65.5632 68.0141 68.7493 -4.5415 6.29503 -177.127 -4.62942 7.95139e-016 -8.94531e-016 7.86738 6.9208 -10.3948 90 1.36664e-015 -0 -11.9693 -2.42301 175.588 -16.2123 7.95139e-016 3.97569e-016 11.6453 -10.9594 11.1003 90 -2.91965e-016 -1.59028e-015 
194.349 89.6942 -31.8561 -164.213 -83.6499 107.422 -0.662867 -1.56523 -0.780401 -1.34775 -3.12071 -1.57957 -1.34775 -3.12071 -1.57958 -8.30708e-012 -9.0191e-006 -5.27751e-005 8.68697 -2.48338 0.511849 -178.287 -27.2464 -86.2625 -21.256 -46.9828 10.6312 -7.85125 6.36111e-015 1.59028e-015 -27.4069 -53.0475 -30.6492 -179.376 19.4276 88.126 -21.4077 44.0415 -7.55636 -6.04404 6.36111e-015 -0 -65.5241 68.0352 68.7088 -4.64501 6.31922 -177.117 -4.68854 7.95139e-016 8.94531e-016 7.88006 6.95155 -10.4411 90 -2.48481e-016 -3.97569e-016 -12.0614 -2.41587 175.595 -16.2535 0 -2.98177e-016 11.6288 -10.9512 11.0626 90 -2.28913e-015 -1.59028e-015 
194.354 89.6925 -31.7949 -164.027 -83.601 107.612 -0.660017 -1.564 -0.779707 -1.34159 -3.11836 -1.56786 -1.34159 -3.11836 -1.56787 -8.30629e-012 -9.0191e-006 -5.27751e-005 8.71027 -2.48843 0.491965 -178.255 -27.2314 -86.1917 -21.2417 -46.9199 10.6843 -7.8719 6.36111e-015 -0 -27.5604 -52.9771 -30.7989 -179.36 19.3933 88.0733 -21.476 43.9774 -7.55455 -6.05503 -3.18055e-015 1.98785e-016 -65.5142 68.0383 68.6988 -4.76013 6.35534 -177.112 -4.76401 -2.38542e-015 -1.39149e-015 7.89106 6.9514 -10.4406 90 -1.18028e-016 -0 -12.1838 -2.40941 175.598 -16.3181 7.95139e-016 -1.98785e-016 11.6191 -10.9771 11.0658 90 2.64011e-016 -0 
194.36 89.6914 -31.7305 -163.522 -83.5478 108.126 -0.656905 -1.55819 -0.779332 -1.33509 -3.10682 -1.56244 -1.33509 -3.10682 -1.56245 -8.30788e-012 -9.0191e-006 -5.27751e-005 8.73185 -2.45848 0.450734 -178.241 -27.237 -86.1603 -21.1625 -46.9262 10.827 -7.9264 9.54166e-015 -0 -27.4361 -53.0544 -30.6805 -179.349 19.3784 88.0393 -21.5082 43.9002 -7.67305 -6.12605 0 -0 -65.5538 68.0383 68.7362 -4.8716 6.41064 -177.1 -4.848 7.95139e-016 6.95746e-016 7.91357 6.94525 -10.4311 90 1.22998e-015 3.97569e-016 -12.3058 -2.36046 175.614 -16.3892 2.38542e-015 5.96354e-016 11.6115 -10.9976 11.0509 90 3.13707e-016 -7.95139e-016 
194.363 89.6902 -31.6768 -162.879 -83.5079 108.78 -0.647879 -1.55004 -0.779179 -1.31709 -3.09061 -1.56633 -1.31709 -3.09061 -1.56634 -8.30867e-012 -9.0191e-006 -5.27751e-005 8.72772 -2.44438 0.444638 -178.244 -27.2089 -86.1647 -21.05 -46.9696 10.9772 -7.92126 3.18055e-015 4.77083e-015 -27.5133 -53.0288 -30.7574 -179.349 19.3448 88.0346 -21.5419 43.9543 -7.8346 -6.1103 -6.36111e-015 1.98785e-016 -65.4973 68.0642 68.6791 -4.95194 6.46092 -177.108 -4.92377 7.95139e-016 -7.95139e-016 7.90855 6.91896 -10.3909 90 -7.33019e-016 -0 -12.4173 -2.33905 175.614 -16.4732 7.95139e-016 9.93923e-017 11.6 -11.0601 11.0962 90 6.89534e-016 -7.95139e-016 
194.366 89.6889 -31.6219 -162.467 -83.4629 109.198 -0.646025 -1.54282 -0.779148 -1.31369 -3.07614 -1.57633 -1.31369 -3.07614 -1.57634 -8.30867e-012 -9.0191e-006 -5.27751e-005 8.81333 -2.46157 0.440976 -178.219 -27.1948 -86.1085 -21.1289 -46.9841 10.9629 -7.8475 6.36111e-015 -4.77083e-015 -27.4991 -52.9904 -30.7369 -179.327 19.3294 87.9674 -21.6835 43.7159 -7.892 -6.07593 6.36111e-015 -0 -65.4632 68.0835 68.6441 -5.02805 6.52186 -177.111 -4.95836 7.95139e-016 1.98785e-016 7.90408 6.92162 -10.3948 90 5.09386e-016 -3.97569e-016 -12.5249 -2.31457 175.613 -16.5366 7.95139e-016 -6.95746e-016 11.601 -11.0926 11.1046 90 -8.57259e-016 -7.95139e-016 
194.368 89.6877 -31.5793 -162.259 -83.4352 109.4 -0.637476 -1.54185 -0.779286 -1.29664 -3.07435 -1.5762 -1.29664 -3.07435 -1.57621 -8.30629e-012 -9.0191e-006 -5.27751e-005 8.90072 -2.50624 0.412793 -178.188 -27.2233 -86.0436 -21.2001 -46.8527 11.0019 -7.88468 -9.54166e-015 1.59028e-015 -27.2285 -53.0547 -30.4643 -179.308 19.2853 87.9047 -21.7305 43.6168 -7.96828 -6.13126 1.27222e-014 1.98785e-016 -65.4041 68.0973 68.5863 -5.10139 6.54787 -177.093 -5.01085 -7.95139e-016 1.19271e-015 7.92329 6.93802 -10.4197 90 4.03781e-016 -3.97569e-016 -12.6016 -2.32446 175.613 -16.5778 -7.95139e-016 -7.95139e-016 11.5887 -11.1213 11.1282 90 -8.60365e-016 1.59028e-015 
194.365 89.6875 -31.5399 -162.296 -83.4702 109.366 -0.620574 -1.54117 -0.779677 -1.26291 -3.07907 -1.57593 -1.26291 -3.07907 -1.57594 -8.30828e-012 -9.0191e-006 -5.27751e-005 8.96633 -2.50242 0.391439 -178.17 -27.2171 -86.0031 -21.1872 -46.8608 11.1185 -7.96837 0 -1.59028e-015 -27.4673 -53.0234 -30.7086 -179.288 19.285 87.8441 -21.8106 43.6324 -8.02376 -6.11929 -9.54166e-015 -9.93923e-016 -65.3915 68.1043 68.5736 -5.12757 6.5328 -177.101 -5.07182 7.95139e-016 -1.98785e-016 7.91566 6.9173 -10.3878 90 6.21202e-018 -3.97569e-016 -12.6042 -2.3251 175.607 -16.5957 -7.95139e-016 3.97569e-016 11.5842 -11.1167 11.1055 90 -3.40419e-015 7.95139e-016 
194.359 89.6867 -31.5031 -162.29 -83.4693 109.377 -0.613495 -1.54053 -0.780279 -1.24848 -3.06901 -1.57564 -1.24848 -3.06901 -1.57565 -8.30788e-012 -9.0191e-006 -5.27751e-005 9.07082 -2.49289 0.382858 -178.158 -27.1908 -85.9734 -21.2493 -46.8355 11.1851 -7.93638 0 -3.18055e-015 -27.5085 -53.0418 -30.7541 -179.275 19.2514 87.8025 -21.8074 43.6009 -8.08636 -6.144 6.36111e-015 -0 -65.3972 68.11 68.5785 -5.15984 6.54952 -177.108 -5.08463 7.95139e-016 8.94531e-016 7.90763 6.9286 -10.4047 90 1.07468e-015 7.95139e-016 -12.643 -2.32341 175.6 -16.6199 0 -0 11.5673 -11.1248 11.1091 90 -3.41351e-015 7.95139e-016 
